<?xml version="1.0" encoding="UTF-8" standalone="no"?>
<svg width="373px" height="65px" viewBox="0 0 373 65" version="1.1" xmlns="http://www.w3.org/2000/svg" xmlns:xlink="http://www.w3.org/1999/xlink">
    <!-- Generator: Sketch 39.1 (31720) - http://www.bohemiancoding.com/sketch -->
    <title>Group</title>
    <desc>Created with Sketch.</desc>
    <defs>
        <polygon id="path-1" points="0.099 35 146.059 35 146.059 17.5312 146.059 0.0624 0.099 0.0624 0.099 35"></polygon>
        <polygon id="path-3" points="136.3846 35 0 35 0 0.0624 136.3846 0.0624"></polygon>
    </defs>
    <g id="Page-1" stroke="none" stroke-width="1" fill="none" fill-rule="evenodd">
        <g id="Artboard" transform="translate(-93.000000, -68.000000)">
            <g id="Group" transform="translate(93.000000, 68.000000)">
                <g id="Page-1">
                    <g id="Group-3" transform="translate(226.000000, 29.987700)">
                        <mask id="mask-2" fill="white">
                            <use xlink:href="#path-1"></use>
                        </mask>
                        <g id="Clip-2"></g>
                        <path d="M94.589,34.9504 L106.177,34.9504 L106.177,8.3414 L115.094,34.9504 L125.554,34.9504 L134.499,8.3414 L134.499,34.9504 L146.059,34.9504 L146.059,0.0624 L127.508,0.0624 L120.379,21.2524 L113.223,0.0624 L94.589,0.0624 L94.589,34.9504 Z M61.533,24.8984 C59.9,23.3544 59.083,20.9064 59.083,17.5554 C59.083,14.1064 59.909,11.6434 61.56,10.1644 C62.111,9.6384 62.973,9.1304 64.147,8.6374 C65.67,7.9794 67.074,7.6514 68.358,7.6514 C69.698,7.6514 71.084,7.9634 72.515,8.5874 C73.524,9.0144 74.377,9.5244 75.074,10.1154 C75.955,10.8384 76.593,11.7654 76.987,12.8994 C77.382,14.0324 77.58,15.4204 77.58,17.0634 C77.58,20.8734 76.776,23.5014 75.171,24.9474 C73.565,26.3934 71.294,27.1154 68.358,27.1154 C65.496,27.1154 63.221,26.3764 61.533,24.8984 L61.533,24.8984 Z M68.249,0.0624 C61.074,0.0624 55.473,1.5984 51.445,4.6704 C47.417,7.7414 45.404,12.0204 45.404,17.5064 C45.404,21.4484 46.413,24.7174 48.431,27.3134 C49.404,28.5944 50.546,29.6944 51.858,30.6144 C53.17,31.5344 54.688,32.3554 56.413,33.0784 C57.789,33.6694 59.647,34.1294 61.987,34.4574 C64.326,34.7864 66.413,34.9504 68.249,34.9504 C70.689,34.9504 73.028,34.7704 75.267,34.4084 C77.506,34.0474 79.451,33.5214 81.102,32.8314 C84.387,31.4194 86.901,29.4484 88.644,26.9184 C90.387,24.3894 91.259,21.1524 91.259,17.2114 C91.259,11.8234 89.272,7.6184 85.299,4.5964 C81.327,1.5734 75.68,0.0624 68.358,0.0624 L68.249,0.0624 Z M0.099,8.6864 L14.522,8.6864 L14.522,35.0004 L28.669,35.0004 L28.669,8.6864 L43.064,8.6864 L43.064,0.1114 L0.099,0.1114 L0.099,8.6864 Z" id="Fill-1" fill="#FFFFFF" mask="url(#mask-2)"></path>
                    </g>
                    <g id="Group-6" transform="translate(0.000000, 29.987700)">
                        <mask id="mask-4" fill="white">
                            <use xlink:href="#path-3"></use>
                        </mask>
                        <g id="Clip-5"></g>
                        <path d="M93.4166,8.6854 L107.8406,8.6854 L107.8406,35.0004 L121.9896,35.0004 L121.9896,8.6854 L136.3846,8.6854 L136.3846,0.1124 L93.4166,0.1124 L93.4166,8.6854 Z M75.5816,29.1864 L76.4576,31.4214 L76.5156,31.5684 L76.5146,31.5684 L77.8386,34.9474 L92.6186,34.9474 L75.4176,0.0624 L60.0036,0.0624 L42.8296,34.9474 L57.2506,34.9474 L59.4816,29.1864 L59.5206,29.1864 L62.5376,21.6464 L62.5366,21.6464 L67.5706,9.0784 L70.0896,15.3614 L70.0906,15.3614 L70.1516,15.5154 L72.6096,21.6464 L72.5816,21.6464 L75.5716,29.1864 L75.5816,29.1864 Z M21.0036,0.0624 L-0.0004,0.0624 L-0.0004,24.3614 L14.1516,24.3614 L14.1516,7.9474 L17.6476,7.9474 C18.8036,7.9474 20.3136,8.1214 22.1846,8.4624 C24.0576,8.8094 25.1736,9.3124 25.5406,9.9674 C26.5906,11.7414 27.2456,13.1284 27.5106,14.1324 C27.7776,15.1344 27.9116,16.2924 27.9116,17.6024 C27.9116,20.3654 27.5656,22.3684 26.8786,23.6154 C26.1916,24.8664 25.1956,25.7354 23.8906,26.2294 C23.4136,26.4254 22.9596,26.5804 22.5286,26.6964 C22.0996,26.8104 21.5996,26.8684 21.0306,26.8684 L17.5886,27.0154 L15.8706,27.0154 L14.1516,27.0154 L-0.0004,27.0154 L-0.0004,34.9474 L21.0036,34.9474 L22.1596,34.9474 C23.5526,34.9474 24.6896,34.8944 25.5696,34.7774 C26.4506,34.6624 27.6506,34.4174 29.1636,34.0424 C30.6766,33.6624 31.9016,33.2744 32.8376,32.8824 C33.7736,32.4864 34.7506,31.9384 35.7696,31.2334 C36.7846,30.5244 37.6696,29.7414 38.4226,28.8904 C39.1746,28.0324 39.8386,27.0814 40.4056,26.0314 C41.5466,23.9244 42.1146,21.0394 42.1146,17.3574 C42.1146,14.9964 41.7276,12.7344 40.9556,10.5804 C40.1886,8.4324 38.9966,6.5834 37.3766,5.0384 C36.5536,4.2524 35.6126,3.5524 34.5556,2.9464 C33.5016,2.3374 32.3326,1.8014 31.0466,1.3414 C28.4436,0.4904 25.1006,0.0624 21.0306,0.0624 L21.0036,0.0624 Z" id="Fill-4" fill="#FFFFFF" mask="url(#mask-4)"></path>
                    </g>
                    <path d="M152.1487,64.9027 L162.9407,64.9027 L166.2887,56.2467 C159.9137,60.0677 155.0157,62.8157 152.1487,64.9027 L152.1487,64.9027 Z M199.6567,15.9727 C193.6137,20.1667 188.3617,24.2057 183.7697,28.0657 L180.6967,20.3997 L174.1187,36.8087 C162.1167,48.5917 156.2767,58.2287 152.1337,64.9027 L138.1297,64.9027 L167.6757,4.8867 L194.1907,4.8867 L199.6567,15.9727 Z M198.3567,64.9027 L223.7837,64.9027 L208.3797,33.6607 C202.3497,36.4687 195.9727,39.7667 189.7357,43.0887 C192.6217,50.3727 195.5027,57.6097 198.3567,64.9027 L198.3567,64.9027 Z" id="Fill-7" fill="#FFFFFF"></path>
                    <path d="M213.8014,14.6455 L213.7754,21.1855 L218.7414,19.3765 L218.7414,12.0945 L213.8014,14.6455 Z M222.6304,4.2135 L222.5524,24.0885 C203.2744,32.0085 170.3664,50.2005 154.7114,62.2765 C154.7114,62.2765 174.2794,31.9165 222.6304,4.2135 L222.6304,4.2135 Z" id="Fill-9" fill="#FFFFFF"></path>
                    <path d="M152.1487,64.9027 L162.9407,64.9027 L166.2887,56.2467 C159.9137,60.0677 155.0157,62.8157 152.1487,64.9027 L152.1487,64.9027 Z M199.6567,15.9727 C193.6137,20.1667 188.3617,24.2057 183.7697,28.0657 L180.6967,20.3997 L174.1187,36.8087 C162.1167,48.5917 156.2767,58.2287 152.1337,64.9027 L138.1297,64.9027 L167.6757,4.8867 L194.1907,4.8867 L199.6567,15.9727 Z M198.3567,64.9027 L223.7837,64.9027 L208.3797,33.6607 C202.3497,36.4687 195.9727,39.7667 189.7357,43.0887 C192.6217,50.3727 195.5027,57.6097 198.3567,64.9027 L198.3567,64.9027 Z" id="Fill-11" fill="#FFFFFF"></path>
                    <polygon id="Fill-13" fill="#FFFFFF" points="228.3318 2.7423 233.6418 0.0003 233.6418 7.8283 228.3038 9.7733"></polygon>
                    <polygon id="Fill-15" fill="#FFFFFF" points="228.2317 15.833 233.5427 13.091 233.5427 20.919 228.2037 22.864"></polygon>
                    <polygon id="Fill-17" fill="#FFFFFF" points="221.5888 11.7032 226.8988 8.9612 226.8988 16.7892 221.5608 18.7342"></polygon>
                    <polygon id="Fill-19" fill="#FFFFFF" points="235.2149 6.4126 240.5249 3.6706 240.5249 11.4986 235.1869 13.4436"></polygon>
                </g>
                <path d="M269,4 L372,4 L372,24 L269,24 L269,4 Z M279.407,21.4687568 L282.325919,21.4687568 L282.325919,6.95524324 L279.407,6.95524324 L279.407,21.4687568 Z M288.38673,21.4687568 L291.305649,21.4687568 L291.305649,9.40794595 L295.623216,9.40794595 L295.623216,6.95524324 L284.089432,6.95524324 L284.089432,9.40794595 L288.38673,9.40794595 L288.38673,21.4687568 Z M297.488081,21.4687568 L300.285378,21.4687568 L300.285378,18.6917297 L297.488081,18.6917297 L297.488081,21.4687568 Z M303.224568,6.95524324 L303.224568,21.4687568 L308.150243,21.4687568 L310.055649,21.4687568 C312.123216,21.4687568 312.974568,21.2255135 313.866459,20.5160541 C314.798892,19.7863243 315.366459,18.5092973 315.366459,17.1917297 C315.366459,15.5295676 314.352946,14.2525405 312.629973,13.7457838 C313.866459,13.1984865 314.657,11.9822703 314.657,10.6038919 C314.657,9.73227027 314.332676,8.90118919 313.724568,8.25254054 C313.339432,7.82686486 312.913757,7.52281081 312.447541,7.34037838 C311.67727,7.05659459 310.88673,6.95524324 309.021865,6.95524324 L303.224568,6.95524324 Z M306.143486,9.36740541 L307.825919,9.36740541 C309.954297,9.36740541 310.278622,9.38767568 310.724568,9.48902703 C311.373216,9.65118919 311.819162,10.2592973 311.819162,11.0295676 C311.819162,12.2052432 311.028622,12.7322703 309.305649,12.7322703 L309.204297,12.7322703 L308.069162,12.7322703 L306.143486,12.7322703 L306.143486,9.36740541 Z M306.143486,15.1444324 L308.515108,15.1444324 C310.461054,15.1444324 311.008351,15.2255135 311.555649,15.5701081 C312.062405,15.8741622 312.346189,16.4417297 312.346189,17.1309189 C312.346189,18.4687568 311.596189,19.0160541 309.670514,19.0160541 L308.859703,19.0160541 L306.143486,19.0160541 L306.143486,15.1444324 Z M330.934027,21.4687568 L325.13673,6.95524324 L322.015108,6.95524324 L316.379973,21.4687568 L319.481324,21.4687568 L320.67727,18.184973 L326.474568,18.184973 L327.751595,21.4687568 L330.934027,21.4687568 Z M325.542135,15.7322703 L321.589432,15.7322703 L323.535378,10.3403784 L325.542135,15.7322703 Z M331.724568,16.7457838 C332.109703,20.0701081 334.075919,21.712 337.704297,21.712 C339.021865,21.712 340.197541,21.489027 341.129973,21.0633514 C342.528622,20.4147027 343.501595,18.8741622 343.501595,17.2525405 C343.501595,16.1174054 343.17727,15.1241622 342.548892,14.4147027 C341.738081,13.4822703 340.744838,13.0160541 338.292135,12.4484865 C336.771865,12.0836216 336.123216,11.8606486 335.616459,11.5363243 C335.271865,11.3133514 335.048892,10.9484865 335.048892,10.5633514 C335.048892,9.69172973 336.021865,9.12416216 337.501595,9.12416216 C339.143486,9.12416216 339.913757,9.73227027 340.157,11.2322703 L343.096189,11.1106486 C342.994838,8.29308108 341.008351,6.712 337.542135,6.712 C334.298892,6.712 332.251595,8.29308108 332.251595,10.7660541 C332.251595,11.5768649 332.494838,12.3674054 332.981324,13.0160541 C333.731324,14.0498378 334.724568,14.5768649 336.893486,15.1241622 C338.63673,15.5498378 338.961054,15.6309189 339.467811,15.8336216 C340.217811,16.1376757 340.582676,16.6038919 340.582676,17.2525405 C340.582676,18.4484865 339.42727,19.239027 337.724568,19.239027 C335.920514,19.239027 334.907,18.3471351 334.562405,16.4822703 L331.724568,16.7457838 Z M345.852946,21.4687568 L348.771865,21.4687568 L348.771865,6.95524324 L345.852946,6.95524324 L345.852946,21.4687568 Z M360.934027,16.1376757 C360.447541,18.1647027 359.352946,19.2187568 357.690784,19.2187568 C356.555649,19.2187568 355.542135,18.6917297 354.934027,17.7795676 C354.38673,16.9687568 354.143486,15.7930811 354.143486,14.0903784 C354.143486,12.8133514 354.305649,11.9417297 354.670514,11.1309189 C355.217811,9.93497297 356.373216,9.22551351 357.771865,9.22551351 C359.332676,9.22551351 360.488081,10.1376757 360.832676,11.6579459 L363.731324,10.9687568 C363.285378,9.40794595 362.697541,8.51605405 361.582676,7.76605405 C360.569162,7.05659459 359.373216,6.712 357.954297,6.712 C353.717811,6.712 351.123216,9.63091892 351.123216,14.3741622 C351.123216,18.7930811 353.758351,21.712 357.731324,21.712 C360.021865,21.712 361.907,20.7795676 362.900243,19.1376757 C363.224568,18.6106486 363.548892,17.8403784 363.771865,17.0295676 L360.934027,16.1376757 Z" id="Combined-Shape" fill="#FFFFFF"></path>
            </g>
        </g>
    </g>
</svg>
